<svg width="12" height="10" viewBox="0 0 12 10" fill="none" xmlns="http://www.w3.org/2000/svg">
<path d="M9.95 0.63125C9.825 0.2625 9.475 0 9.0625 0H2.1875C1.775 0 1.43125 0.2625 1.3 0.63125L0 4.375V9.375C0 9.71875 0.28125 10 0.625 10H1.25C1.59375 10 1.875 9.71875 1.875 9.375V8.75H9.375V9.375C9.375 9.71875 9.65625 10 10 10H10.625C10.9688 10 11.25 9.71875 11.25 9.375V4.375L9.95 0.63125ZM2.1875 6.875C1.66875 6.875 1.25 6.45625 1.25 5.9375C1.25 5.41875 1.66875 5 2.1875 5C2.70625 5 3.125 5.41875 3.125 5.9375C3.125 6.45625 2.70625 6.875 2.1875 6.875ZM9.0625 6.875C8.54375 6.875 8.125 6.45625 8.125 5.9375C8.125 5.41875 8.54375 5 9.0625 5C9.58125 5 10 5.41875 10 5.9375C10 6.45625 9.58125 6.875 9.0625 6.875ZM1.25 3.75L2.1875 0.9375H9.0625L10 3.75H1.25Z" fill="black"/>
</svg>
