<svg width="13" height="11" viewBox="0 0 13 11" fill="none" xmlns="http://www.w3.org/2000/svg">
<path d="M10.825 0.75625C10.7 0.3875 10.35 0.125 9.9375 0.125H3.0625C2.65 0.125 2.30625 0.3875 2.175 0.75625L0.875 4.5V9.5C0.875 9.84375 1.15625 10.125 1.5 10.125H2.125C2.46875 10.125 2.75 9.84375 2.75 9.5V8.875H10.25V9.5C10.25 9.84375 10.5312 10.125 10.875 10.125H11.5C11.8438 10.125 12.125 9.84375 12.125 9.5V4.5L10.825 0.75625ZM3.0625 7C2.54375 7 2.125 6.58125 2.125 6.0625C2.125 5.54375 2.54375 5.125 3.0625 5.125C3.58125 5.125 4 5.54375 4 6.0625C4 6.58125 3.58125 7 3.0625 7ZM9.9375 7C9.41875 7 9 6.58125 9 6.0625C9 5.54375 9.41875 5.125 9.9375 5.125C10.4563 5.125 10.875 5.54375 10.875 6.0625C10.875 6.58125 10.4563 7 9.9375 7ZM2.125 3.875L3.0625 1.0625H9.9375L10.875 3.875H2.125Z" fill="white"/>
</svg>
