<svg width="21" height="21" viewBox="0 0 21 21" fill="none" xmlns="http://www.w3.org/2000/svg">
<g clip-path="url(#clip0)">
<path d="M10.5 4.24101C6.48773 4.24101 2.84919 6.43616 0.164314 10.0017C-0.0547714 10.2938 -0.0547714 10.7019 0.164314 10.994C2.84919 14.5638 6.48773 16.759 10.5 16.759C14.5123 16.759 18.1508 14.5638 20.8357 10.9983C21.0548 10.7062 21.0548 10.2981 20.8357 10.006C18.1508 6.43616 14.5123 4.24101 10.5 4.24101ZM10.7878 14.9075C8.12442 15.075 5.92498 12.8799 6.09251 10.2122C6.22998 8.01272 8.01273 6.22997 10.2122 6.0925C12.8756 5.92496 15.075 8.12012 14.9075 10.7878C14.7657 12.983 12.983 14.7657 10.7878 14.9075ZM10.6546 12.8713C9.21985 12.9615 8.03421 11.7801 8.12872 10.3453C8.20175 9.1597 9.16401 8.20174 10.3496 8.12441C11.7844 8.0342 12.9701 9.21554 12.8756 10.6503C12.7983 11.8403 11.836 12.7982 10.6546 12.8713Z" fill="black"/>
</g>
<defs>
<clipPath id="clip0">
<rect width="21" height="21" fill="white"/>
</clipPath>
</defs>
</svg>
