<svg width="92" height="19" viewBox="0 0 92 19" fill="none" xmlns="http://www.w3.org/2000/svg">
<path d="M47.2521 8.85604C46.4942 8.85604 45.9478 9.10548 45.394 9.3597V15.1103C45.9246 15.1611 46.2287 15.1611 46.7323 15.1611C48.5514 15.1611 48.8008 14.3249 48.8008 13.1573V10.4105C48.8008 9.54855 48.5158 8.85604 47.2521 8.85604ZM35.1713 8.54227C33.9093 8.54227 33.621 9.2379 33.621 10.0991V10.5829H36.7197V10.0991C36.7197 9.2379 36.4318 8.54227 35.1713 8.54227ZM11.7684 14.5281C11.7684 15.2094 12.0887 15.5633 12.7956 15.5633C13.554 15.5633 14.0028 15.3152 14.5563 15.0603V13.6961H12.8981C12.1134 13.6961 11.7684 13.8427 11.7684 14.5281ZM59.0037 8.85604C57.7397 8.85604 57.3016 9.54855 57.3016 10.4105V13.557C57.3016 14.4215 57.7397 15.1161 59.0037 15.1161C60.2645 15.1161 60.7059 14.4215 60.7059 13.557V10.4105C60.7059 9.54855 60.2645 8.85604 59.0037 8.85604ZM5.57318 18.056H1.8571V9.02698H0V5.91569H1.8571V4.04762C1.8571 1.50932 2.90524 0 5.8839 0H8.36391V3.11192H6.8138C5.65407 3.11192 5.57774 3.54666 5.57774 4.35827L5.57318 5.91569H8.38134L8.05277 9.02698H5.57318V18.056ZM18.2738 18.0794H15.1767L15.0425 17.2932C13.6282 18.0794 12.366 18.2068 11.5334 18.2068C9.26208 18.2068 8.05277 16.6835 8.05277 14.5773C8.05277 12.0921 9.46349 11.2051 11.9875 11.2051H14.5563V10.6679C14.5563 9.39968 14.4115 9.02698 12.4681 9.02698H9.2905L9.60122 5.91569H13.0746C17.3389 5.91569 18.2738 7.26781 18.2738 10.6929V18.0794ZM28.8062 9.25518C26.8787 8.92371 26.3253 8.85083 25.3979 8.85083C23.7321 8.85083 23.2286 9.21978 23.2286 10.6396V13.3255C23.2286 14.7455 23.7321 15.1161 25.3979 15.1161C26.3253 15.1161 26.8787 15.042 28.8062 14.7088V17.7437C27.1179 18.1235 26.0181 18.2234 25.0884 18.2234C21.0985 18.2234 19.5126 16.1172 19.5126 13.0748V10.8953C19.5126 7.85017 21.0985 5.74037 25.0884 5.74037C26.0181 5.74037 27.1179 5.84073 28.8062 6.22217V9.25518ZM40.4358 13.0748H33.621V13.3255C33.621 14.7455 34.1248 15.1161 35.7903 15.1161C37.2875 15.1161 38.2012 15.042 40.1251 14.7088V17.7437C38.2696 18.1235 37.3028 18.2234 35.4822 18.2234C31.4921 18.2234 29.9053 16.1172 29.9053 13.0748V10.5829C29.9053 7.92096 31.0827 5.74037 35.1713 5.74037C39.2599 5.74037 40.4358 7.89556 40.4358 10.5829V13.0748ZM52.5162 13.1323C52.5162 16.073 51.679 18.2176 46.6066 18.2176C44.775 18.2176 43.7005 18.056 41.6789 17.7437V0.934242L45.394 0.3119V6.19177C46.1967 5.89237 47.2359 5.74037 48.1818 5.74037C51.8973 5.74037 52.5162 7.41231 52.5162 10.0991V13.1323ZM64.4251 13.1964C64.4251 15.7332 63.3817 18.1935 59.0162 18.1935C54.6486 18.1935 53.5857 15.7332 53.5857 13.1964V10.747C53.5857 8.20892 54.6486 5.74828 59.0162 5.74828C63.3817 5.74828 64.4251 8.20892 64.4251 10.747V13.1964ZM76.3256 13.1964C76.3256 15.7332 75.281 18.1935 70.9163 18.1935C66.5487 18.1935 65.4859 15.7332 65.4859 13.1964V10.747C65.4859 8.20892 66.5487 5.74828 70.9163 5.74828C75.281 5.74828 76.3256 8.20892 76.3256 10.747V13.1964ZM88.5386 18.056H84.5116L81.106 12.3494V18.056H77.3897V0.934242L81.106 0.3119V11.3342L84.5116 5.91569H88.5386L84.8207 11.8289L88.5386 18.056ZM70.9039 8.85604C69.6419 8.85604 69.2038 9.54855 69.2038 10.4105V13.557C69.2038 14.4215 69.6419 15.1161 70.9039 15.1161C72.1642 15.1161 72.6102 14.4215 72.6102 13.557V10.4105C72.6102 9.54855 72.1642 8.85604 70.9039 8.85604Z" fill="#1A6AD7"/>
<path d="M90.6599 15.9268C91.2855 15.9268 91.7841 16.439 91.7841 17.0786C91.7841 17.7282 91.2855 18.2346 90.6553 18.2346C90.0285 18.2346 89.5199 17.7282 89.5199 17.0786C89.5199 16.439 90.0285 15.9268 90.6553 15.9268H90.6599ZM90.6553 16.1058C90.1513 16.1058 89.7385 16.5414 89.7385 17.0786C89.7385 17.6258 90.1513 18.0555 90.6599 18.0555C91.1689 18.0605 91.5755 17.6258 91.5755 17.0836C91.5755 16.5414 91.1689 16.1058 90.6599 16.1058H90.6553ZM90.4412 17.749H90.2371V16.4639C90.3442 16.449 90.4462 16.434 90.5989 16.434C90.7926 16.434 90.9192 16.4748 90.9967 16.5306C91.0718 16.5872 91.1125 16.6738 91.1125 16.7962C91.1125 16.9661 91.0013 17.0678 90.864 17.1094V17.1194C90.9756 17.1402 91.0519 17.2418 91.0776 17.4309C91.1075 17.6308 91.1382 17.7074 91.1585 17.749H90.9449C90.9146 17.7074 90.8839 17.5899 90.8582 17.4209C90.8283 17.2576 90.7462 17.196 90.5827 17.196H90.4412V17.749ZM90.4412 17.0378H90.5889C90.7561 17.0378 90.8984 16.9761 90.8984 16.8171C90.8984 16.7046 90.8175 16.5922 90.5889 16.5922C90.5221 16.5922 90.4761 16.5972 90.4412 16.6022V17.0378Z" fill="#1A6AD7"/>
</svg>
