<svg width="110" height="18" viewBox="0 0 110 18" fill="none" xmlns="http://www.w3.org/2000/svg">
<path d="M95.9073 16.2703C95.9073 17.2257 95.0817 18 94.0624 18C93.0432 18 92.2176 17.2257 92.2176 16.2703V8.12497C92.2176 7.16946 93.0432 6.39502 94.0624 6.39502C95.0817 6.39502 95.9073 7.16946 95.9073 8.12497V16.2703ZM96.4449 2.23383C96.4449 3.46777 95.3784 4.4677 94.0624 4.4677C92.7465 4.4677 91.68 3.46774 91.68 2.23383C91.68 0.999922 92.7465 0 94.0624 0C95.3784 0 96.4449 0.999922 96.4449 2.23383ZM101.64 8.0415V8.32485C102.085 7.64831 102.715 7.12648 103.529 6.75909C104.342 6.39227 105.279 6.20856 106.338 6.20856C107.121 6.20856 107.755 6.34171 108.238 6.60802C108.722 6.87474 109.094 7.22019 109.355 7.64465C109.616 8.0696 109.789 8.53391 109.874 9.03748C109.958 9.5414 110 10.0309 110 10.5058V17.965H106.315V11.3909C106.315 10.6429 106.165 10.0992 105.866 9.76106C105.567 9.42265 105.171 9.25334 104.68 9.25334C104.419 9.25334 104.154 9.30403 103.886 9.40441C103.617 9.50538 103.363 9.64582 103.126 9.82587C102.887 10.0058 102.669 10.218 102.469 10.4627C102.269 10.708 102.116 10.9737 102.008 11.2619V17.9652H98.3236V7.99837V7.95918C98.3346 7.12689 99.0414 6.4537 99.9246 6.42455H100.042C100.909 6.45311 101.605 7.10384 101.64 7.91577L101.64 8.0415ZM34.6638 9.84703C34.4026 9.11994 34.0422 8.49033 33.5815 7.9573C33.121 7.42514 32.5718 7.00382 31.9351 6.69414C31.2976 6.38501 30.5953 6.22996 29.8278 6.22996C28.9066 6.22996 28.112 6.4134 27.4441 6.7805C26.7761 7.1476 26.2426 7.65532 25.8433 8.30271V1.74027H25.8411C25.8411 1.73528 25.842 1.73082 25.842 1.72583C25.842 0.772806 25.0179 0.000102147 24.0016 0.000102147C22.9851 0.000102147 22.1611 0.772806 22.1611 1.72583C22.1611 1.73082 22.1619 1.73528 22.1619 1.74027H22.1586V17.9862H22.2635V17.9882H25.8215V16.5046C26.1526 16.8853 26.5466 17.2008 27.0065 17.4482C27.6893 17.815 28.4918 17.9987 29.4132 17.9987C30.2113 17.9987 30.9562 17.8507 31.6469 17.5558C32.3379 17.2608 32.9367 16.8506 33.4434 16.3251C33.9499 15.8 34.345 15.1806 34.6294 14.4681C34.9133 13.7555 35.0555 12.9888 35.0555 12.1683C35.0557 11.3474 34.925 10.5741 34.6638 9.84703ZM31.0715 13.3232C30.9332 13.6764 30.7376 13.9819 30.4842 14.2413C30.2308 14.5004 29.9235 14.7055 29.5629 14.8568C29.2023 15.0079 28.8067 15.0835 28.3768 15.0835C27.8703 15.0835 27.3866 14.9432 26.9263 14.6625C26.4654 14.3816 26.1046 13.9969 25.8435 13.5071V11.1318C26.1046 10.5705 26.4769 10.1027 26.9604 9.728C27.4443 9.35403 27.9775 9.16683 28.5612 9.16683C28.9602 9.16683 29.3247 9.24595 29.655 9.40417C29.9852 9.56267 30.2731 9.77838 30.5187 10.0518C30.7641 10.3256 30.9524 10.6456 31.0829 11.0127C31.2134 11.38 31.2788 11.7652 31.2788 12.1682C31.2788 12.586 31.2095 12.9707 31.0715 13.3232ZM54.2164 8.06291V8.34609C54.6616 7.66972 55.2909 7.14774 56.1051 6.7805C56.9183 6.41354 57.8552 6.22996 58.9143 6.22996C59.6974 6.22996 60.3307 6.36312 60.8144 6.62943C61.2979 6.89601 61.67 7.24143 61.9312 7.66596C62.1925 8.0909 62.3648 8.55518 62.4497 9.05879C62.5337 9.56284 62.576 10.052 62.576 10.5272V17.9862H58.8912V11.4124C58.8912 10.6643 58.7417 10.1207 58.4423 9.78239C58.1426 9.44412 57.7474 9.27468 57.2563 9.27468C56.9949 9.27468 56.73 9.32523 56.4619 9.42589C56.1928 9.52686 55.9395 9.66713 55.7016 9.84735C55.4635 10.0271 55.2447 10.2394 55.0454 10.4841C54.8454 10.7291 54.6917 10.9952 54.5847 11.2833V17.9863H50.8998V8.01967V7.98034C50.911 7.14823 51.6177 6.47486 52.5008 6.44589H52.6181C53.4853 6.47444 54.1813 7.12518 54.2161 7.93694L54.2164 8.06291ZM18.8196 7.9899C18.2668 7.45003 17.5911 7.0217 16.7932 6.70473C15.9944 6.38832 15.0808 6.22982 14.0524 6.22982C13.0237 6.22982 12.1062 6.38832 11.3003 6.70473C10.4943 7.02173 9.81499 7.45366 9.26216 8.0007C8.70936 8.54786 8.2869 9.18479 7.99544 9.91175C7.70365 10.6386 7.55792 11.4122 7.55792 12.233C7.55792 12.895 7.66791 13.5323 7.8876 14.1452C7.70785 14.393 7.4667 14.6025 7.15784 14.77C6.77394 14.9792 6.35177 15.0834 5.89112 15.0834C5.52276 15.0834 5.1733 15.0114 4.84317 14.8675C4.513 14.7237 4.22507 14.5217 3.97976 14.2631C3.87006 14.1476 3.68488 13.9043 3.68488 13.0003V1.73371C3.68533 0.772665 2.86126 0.000102147 1.84484 0.000102147C0.830869 0.000102147 0.00866424 0.769318 0.00479697 1.719L0 13.9336C0 14.9546 0.659705 15.7589 1.13545 16.217C1.69587 16.7567 2.37919 17.189 3.18511 17.513C3.45173 17.6201 3.73092 17.7078 4.02022 17.7796C4.60548 17.9247 5.23614 17.9988 5.91433 17.9988C7.31112 17.9988 8.49722 17.7181 9.47248 17.1563C9.65115 17.0537 9.818 16.9434 9.97898 16.83C10.3822 17.1058 10.8267 17.3439 11.3234 17.5346C12.1294 17.8438 13.0391 17.999 14.0525 17.999C15.4494 17.999 16.647 17.7182 17.6453 17.1565C18.6432 16.5954 19.38 15.8684 19.856 14.9757L16.7241 14.1552C16.6232 14.4043 16.4638 14.6226 16.2458 14.8099C16.0982 14.9368 15.9234 15.0497 15.7221 15.1484C15.2229 15.3933 14.705 15.5154 14.1676 15.5154C13.4917 15.5154 12.8895 15.3179 12.3598 14.9219C11.8302 14.5261 11.5342 13.9464 11.473 13.1834H20.4088C20.4393 13.0399 20.4624 12.8702 20.478 12.6761C20.4928 12.4818 20.5008 12.284 20.5008 12.0825C20.5008 11.3049 20.3588 10.5635 20.0748 9.85812C19.7907 9.15275 19.3723 8.52969 18.8196 7.9899ZM11.4038 11.0453C11.4805 10.3401 11.7531 9.77493 12.2215 9.34998C12.6895 8.92546 13.2845 8.71319 14.0062 8.71319C14.7125 8.71319 15.3034 8.92197 15.7795 9.33935C16.2554 9.75701 16.5318 10.3256 16.6087 11.0451L11.4038 11.0453ZM89.7977 9.88985C89.5059 9.17747 89.0835 8.55106 88.5309 8.0113C87.9784 7.47158 87.3024 7.03949 86.5044 6.71565C85.706 6.39209 84.7921 6.22993 83.7638 6.22993C82.735 6.22993 81.8177 6.39206 81.0116 6.71565C80.2056 7.03949 79.5261 7.47158 78.9734 8.0113C78.4208 8.55103 78.0022 9.17747 77.7184 9.88985C77.4342 10.6025 77.2923 11.3474 77.2923 12.1249C77.2923 12.9024 77.4342 13.6473 77.7184 14.3601C78.0022 15.0729 78.4208 15.6987 78.9734 16.2386C79.5262 16.7787 80.2056 17.207 81.0116 17.5235C81.8177 17.8399 82.735 17.9987 83.7638 17.9987C84.7921 17.9987 85.7096 17.8399 86.5159 17.5235C87.322 17.2071 88.0013 16.7788 88.5541 16.2386C89.1069 15.6989 89.5249 15.0729 89.809 14.3601C90.0931 13.6473 90.2352 12.9023 90.2352 12.1249C90.2352 11.3474 90.0891 10.6025 89.7977 9.88985ZM86.2279 13.3232C86.0896 13.6905 85.9014 14.0039 85.6635 14.263C85.4254 14.5218 85.1454 14.7235 84.823 14.8676C84.5008 15.0113 84.1471 15.0832 83.7638 15.0832C82.9808 15.0832 82.336 14.8133 81.8292 14.2735C81.3227 13.7338 81.0693 13.0175 81.0693 12.1248C81.0693 11.6931 81.1382 11.2936 81.2765 10.9264C81.4148 10.5593 81.6025 10.2464 81.841 9.98716C82.0786 9.72786 82.3624 9.52637 82.6927 9.38259C83.0227 9.23866 83.3798 9.16683 83.7638 9.16683C84.5311 9.16683 85.1687 9.43663 85.6752 9.97653C86.182 10.5163 86.4352 11.2324 86.4352 12.1249C86.4351 12.557 86.3663 12.9565 86.2279 13.3232ZM47.4227 8.01134C46.8699 7.47161 46.194 7.03952 45.3959 6.71568C44.5974 6.39213 43.6837 6.22996 42.6553 6.22996C41.6266 6.22996 40.7095 6.39209 39.9031 6.71568C39.0973 7.03952 38.4178 7.47161 37.8652 8.01134C37.3123 8.55107 36.8937 9.1775 36.6098 9.88988C36.3256 10.6025 36.1838 11.3474 36.1838 12.1249C36.1838 12.9024 36.3256 13.6473 36.6098 14.3601C36.8937 15.0729 37.3123 15.6987 37.8652 16.2386C38.4177 16.7788 39.0973 17.2071 39.9031 17.5235C40.7095 17.8399 41.6266 17.9987 42.6553 17.9987C43.6837 17.9987 44.6015 17.8399 45.4074 17.5235C46.2136 17.2071 46.8927 16.7788 47.4456 16.2386C47.9984 15.6989 48.4166 15.0729 48.7008 14.3601C48.9848 13.6473 49.1268 12.9024 49.1268 12.1249C49.1268 11.3474 48.9808 10.6026 48.6895 9.88988C48.3975 9.17764 47.9755 8.55107 47.4227 8.01134ZM45.1195 13.3232C44.9813 13.6905 44.7931 14.0039 44.5553 14.263C44.317 14.5218 44.0371 14.7235 43.7146 14.8676C43.3924 15.0113 43.0389 15.0832 42.6553 15.0832C41.8722 15.0832 41.2275 14.8133 40.7209 14.2735C40.2143 13.7338 39.9607 13.0175 39.9607 12.1248C39.9607 11.6931 40.0299 11.2936 40.1681 10.9264C40.3063 10.5593 40.4941 10.2464 40.7323 9.98716C40.9702 9.72786 41.2542 9.52637 41.5845 9.38259C41.9145 9.23866 42.2714 9.16683 42.6553 9.16683C43.423 9.16683 44.0602 9.43663 44.5668 9.97653C45.0735 10.5163 45.3269 11.2324 45.3269 12.1249C45.3269 12.557 45.2578 12.9565 45.1195 13.3232ZM72.0183 14.77C71.6344 14.9793 71.2122 15.0832 70.7517 15.0832C70.3833 15.0832 70.0339 15.0112 69.7039 14.8676C69.3735 14.7236 69.0856 14.5216 68.8401 14.2628C68.5942 14.0038 68.4028 13.6906 68.2645 13.3232C68.1262 12.9565 68.0571 12.5498 68.0571 12.1035C68.0571 11.211 68.3139 10.4985 68.8288 9.96572C69.3429 9.43314 69.9837 9.16683 70.7517 9.16683C71.6729 9.16683 72.3715 9.52679 72.8472 10.2466L76.44 9.23169C75.9641 8.33898 75.2502 7.61564 74.2985 7.06148C73.3462 6.50732 72.1717 6.22993 70.7747 6.22993C69.7458 6.22993 68.8288 6.38843 68.0224 6.70484C67.2165 7.0217 66.5373 7.45013 65.9843 7.99003C65.4315 8.52976 65.0093 9.15561 64.7179 9.86858C64.4259 10.5812 64.2803 11.3259 64.2803 12.1035C64.2803 12.8811 64.426 13.6258 64.7179 14.3385C65.0093 15.051 65.4352 15.6773 65.9959 16.2172C66.5563 16.7569 67.2397 17.1889 68.0456 17.5129C68.8516 17.8371 69.7615 17.9988 70.7747 17.9988C72.1714 17.9988 73.3575 17.7179 74.3328 17.1563C75.3075 16.595 76.0175 15.8754 76.4629 14.9975L72.8702 13.9607C72.6862 14.292 72.4021 14.5618 72.0183 14.77Z" fill="#F56B2A"/>
</svg>
