<svg width="15" height="14" viewBox="0 0 15 14" fill="none" xmlns="http://www.w3.org/2000/svg">
<path d="M14.1426 5.70554H8.66462L10.4906 3.87954C9.94603 3.31575 9.26346 2.90418 8.51067 2.68567C7.75788 2.46716 6.96104 2.4493 6.19921 2.63388C5.43739 2.81845 4.73708 3.19903 4.16777 3.73786C3.59847 4.27668 3.17996 4.95502 2.95379 5.70554H0.371517C0.609072 4.44677 1.18721 3.27721 2.04306 2.32408C2.89892 1.37094 3.99972 0.670705 5.22576 0.29952C6.4518 -0.0716647 7.75614 -0.0995895 8.99695 0.218783C10.2377 0.537155 11.3675 1.18964 12.2634 2.10527L14.1426 0.227529V5.70554ZM0.371517 8.29238H5.84953L4.02353 10.1184C4.56812 10.6822 5.25069 11.0937 6.00348 11.3123C6.75627 11.5308 7.55311 11.5486 8.31494 11.364C9.07676 11.1795 9.77708 10.7989 10.3464 10.2601C10.9157 9.72124 11.3342 9.04291 11.5604 8.29238H14.1426C13.9051 9.55116 13.3269 10.7207 12.4711 11.6738C11.6152 12.627 10.5144 13.3272 9.28839 13.6984C8.06235 14.0696 6.75801 14.0975 5.5172 13.7791C4.2764 13.4608 3.14664 12.8083 2.25078 11.8927L0.369995 13.7704V8.29238H0.371517Z" fill="white"/>
</svg>
