<svg width="32" height="22" viewBox="0 0 32 22" fill="none" xmlns="http://www.w3.org/2000/svg">
<path d="M30.7074 0H1.29262C0.57875 0 0 0.895465 0 2C0 3.10454 0.57875 4 1.29262 4H30.7074C31.4213 4 32 3.10454 32 2C32 0.895465 31.4213 0 30.7074 0Z" fill="white"/>
<path d="M30.7074 9H1.29262C0.57875 9 0 9.89537 0 11C0 12.1046 0.57875 13 1.29262 13H30.7074C31.4213 13 32 12.1046 32 11C32 9.89537 31.4213 9 30.7074 9Z" fill="white"/>
<path d="M30.7074 18H1.29262C0.57875 18 0 18.8954 0 20C0 21.1046 0.57875 22 1.29262 22H30.7074C31.4213 22 32 21.1046 32 20C32 18.8955 31.4213 18 30.7074 18Z" fill="white"/>
</svg>
