<svg width="21" height="22" viewBox="0 0 21 22" fill="none" xmlns="http://www.w3.org/2000/svg">
<path d="M10.1637 10.8298C12.8626 10.8298 15.0581 8.40062 15.0581 5.4148C15.0581 2.42898 12.8624 0 10.1637 0C7.46476 0 5.2688 2.42921 5.2688 5.4148C5.2688 8.40085 7.46476 10.8298 10.1637 10.8298Z" fill="black" fill-opacity="0.9"/>
<path d="M15.8018 10.1193C15.5165 10.0576 15.2229 10.1817 15.0697 10.4301C13.3187 13.2668 10.4955 13.3487 10.1795 13.3487C9.86342 13.3487 7.04043 13.2668 5.28986 10.431C5.1362 10.1821 4.84195 10.0576 4.55642 10.1204C0.754818 10.9573 -0.247642 16.6957 0.0486699 21.3553C0.0718336 21.7177 0.372273 22 0.735324 22H19.624C19.9871 22 20.2878 21.7179 20.3105 21.3553C20.607 16.6904 19.6043 10.9488 15.8018 10.1193Z" fill="black" fill-opacity="0.9"/>
</svg>
